<svg xmlns="http://www.w3.org/2000/svg" xmlns:xlink="http://www.w3.org/1999/xlink" width="500" zoomAndPan="magnify" viewBox="0 0 375 374.999991" height="500" preserveAspectRatio="xMidYMid meet" version="1.0"><defs><clipPath id="9acedc4dbe"><path d="M 0 70 L 375 70 L 375 310.484375 L 0 310.484375 Z M 0 70 " clip-rule="nonzero"/></clipPath><clipPath id="2ff599125d"><path d="M 1.558594 300.46875 C 18.125 265.445312 67.351562 174.050781 127.511719 101.265625 C 152.535156 70.984375 164.757812 70.25 174.15625 70.296875 C 183.550781 70.339844 200.136719 76.640625 206.527344 108.011719 C 206.527344 108.011719 229.191406 206.15625 204.523438 263.753906 C 204.523438 263.753906 191.855469 298.777344 164.3125 297.039062 C 130.851562 294.945312 119.136719 253.957031 140.800781 217.511719 C 159.636719 185.804688 185.355469 175.695312 215.542969 175.742188 C 238.898438 175.765625 352.117188 178.257812 375.003906 175.320312 C 375.003906 175.320312 368.101562 184.625 358.148438 193.777344 C 346.214844 204.730469 337.890625 203.351562 319.566406 203.351562 C 283.5625 203.351562 248.652344 200.988281 229.636719 200.878906 C 219.929688 200.8125 178.519531 197.648438 161.464844 226.863281 C 148.105469 249.75 156.054688 276.332031 171.707031 276.15625 C 184.441406 276.023438 192.121094 263.175781 197.445312 243.070312 C 210.578125 193.464844 193.96875 130.34375 186.289062 114.535156 C 181.613281 104.894531 177.917969 98.839844 171.996094 98.214844 C 165.09375 97.480469 157.234375 103.09375 149.886719 110.839844 C 122.167969 140.117188 45.53125 249.570312 15.519531 298.085938 C 15.183594 298.644531 12.179688 303.765625 10.953125 305.457031 C 8.460938 308.882812 5.8125 311.601562 2.648438 310.019531 C -1.023438 308.171875 -0.355469 304.542969 1.558594 300.46875 " clip-rule="nonzero"/></clipPath></defs><g clip-path="url(#9acedc4dbe)"><g clip-path="url(#2ff599125d)"><path fill="#48a23f" d="M 0 70.296875 L 375.292969 70.296875 L 375.292969 310.484375 L 0 310.484375 Z M 0 70.296875 " fill-opacity="1" fill-rule="nonzero"/></g></g></svg>